# 3ds Max Wavefront OBJ Exporter v0.99 - (c)2007 guruware
# File Created: 21.04.2022 11:45:08

mtllib keyObjNonPoser.mtl

#
# object Key
#

v  -5.7129 1.0666 1.0603
v  -5.7702 1.0778 1.0019
v  -5.7698 1.0802 0.8851
v  -5.7120 1.0715 0.8267
v  2.6350 -0.3662 0.8267
v  2.6367 -0.3566 0.3595
v  -5.2498 1.0018 0.3595
v  -5.1921 0.9931 0.3011
v  -4.8454 0.9409 -0.0494
v  -4.5009 0.8765 0.1843
v  -4.1555 0.8170 0.1843
v  -3.6933 0.7474 -0.2830
v  -3.5781 0.7276 -0.2830
v  -3.1191 0.6398 0.1258
v  -2.6010 0.5505 0.1258
v  -2.0235 0.4623 -0.3998
v  -1.8508 0.4325 -0.3998
v  -1.2768 0.3237 0.0674
v  -0.7587 0.2345 0.0674
v  -0.1809 0.1474 -0.5166
v  0.3372 0.0582 -0.5166
v  1.8339 -0.1996 -0.5166
v  1.8351 -0.1924 -0.8669
v  2.1230 -0.2420 -0.8669
v  2.2957 -0.2712 -0.8903
v  2.3534 -0.2806 -0.9137
v  2.5736 -0.3099 -1.3225
v  2.5972 -0.3102 -1.4977
v  2.6205 -0.3130 -1.5561
v  2.5499 -0.3095 -1.1473
v  2.7938 -0.3391 -1.7313
v  2.8515 -0.3485 -1.7546
v  3.0242 -0.3778 -1.7780
v  3.4502 -0.4512 -1.7780
v  2.5267 -0.3068 -1.0889
v  4.3869 -0.6224 -1.3108
v  4.3811 -0.6558 0.3011
v  5.7486 -0.8725 -0.5839
v  4.7253 -0.7225 0.6515
v  4.3786 -0.6703 1.0019
v  4.3729 -0.7036 2.6137
v  5.2750 -0.8690 3.0809
v  3.0069 -0.4783 3.0809
v  2.8343 -0.4481 3.0576
v  2.7768 -0.4377 3.0342
v  2.6047 -0.4043 2.8590
v  2.5819 -0.3991 2.8006
v  2.5595 -0.3916 2.6254
v  2.5371 -0.3840 2.4502
v  2.5143 -0.3788 2.3918
v  2.1121 -0.3048 2.1699
v  1.8243 -0.2552 2.1699
v  1.8264 -0.2431 1.5859
v  2.2848 -0.3350 2.1932
v  2.3422 -0.3454 2.2166
v  -5.2540 0.9776 1.5275
v  -5.1967 0.9665 1.5859
v  2.1626 -0.0117 -0.8620
v  1.8748 0.0378 -0.8620
v  1.8735 0.0306 -0.5117
v  2.3354 -0.0410 -0.8854
v  2.3341 -0.0487 -0.5117
v  1.8660 -0.0129 1.5908
v  -5.1570 1.1967 1.5908
v  0.3689 0.2423 -0.5126
v  1.8656 -0.0155 -0.5126
v  -5.7049 1.1127 1.0612
v  -5.6732 1.2968 1.0652
v  -5.7306 1.3080 1.0068
v  -5.7302 1.3104 0.8900
v  -5.6724 1.3017 0.8316
v  -5.6764 1.2787 0.8311
v  -5.6803 1.2556 0.8306
v  -5.1604 1.1773 0.3050
v  -4.8137 1.1250 -0.0454
v  -5.1537 1.2161 0.3058
v  -5.2461 1.0237 1.5284
v  -5.2144 1.2079 1.5324
v  2.7874 -0.1703 1.5284
v  2.7254 -0.2545 1.5304
v  2.6405 -0.3347 1.5284
v  2.7890 -0.1607 1.0652
v  2.7271 -0.2448 1.0632
v  2.3284 -0.0814 1.0652
v  2.6421 -0.3250 1.0612
v  -5.2181 1.1860 0.3634
v  -5.2142 1.2090 0.3639
v  -5.2102 1.2320 0.3644
v  2.7216 -0.2764 0.3614
v  2.7835 -0.1922 0.3634
v  2.7819 -0.2019 0.8306
v  2.7200 -0.2860 0.8286
v  -4.4691 1.0607 0.1882
v  1.8640 -0.0250 2.1748
v  2.1518 -0.0746 2.1748
v  2.3244 -0.1048 2.1981
v  2.3819 -0.1152 2.2215
v  2.5540 -0.1486 2.3967
v  2.5992 -0.1613 2.6303
v  2.6216 -0.1689 2.8055
v  2.6444 -0.1741 2.8639
v  2.5768 -0.1537 2.4551
v  2.8165 -0.2075 3.0391
v  2.8740 -0.2179 3.0625
v  3.0466 -0.2481 3.0858
v  5.3147 -0.6388 3.0858
v  4.4126 -0.4734 2.6186
v  4.4183 -0.4401 1.0068
v  4.7649 -0.4923 0.6564
v  5.7883 -0.6423 -0.5789
v  4.4208 -0.4256 0.3060
v  4.4265 -0.3922 -1.3059
v  3.4899 -0.2209 -1.7731
v  3.0639 -0.1476 -1.7731
v  2.8911 -0.1183 -1.7497
v  2.8335 -0.1089 -1.7264
v  2.6601 -0.0828 -1.5512
v  2.6369 -0.0800 -1.4928
v  2.6133 -0.0797 -1.3176
v  2.5896 -0.0793 -1.1424
v  2.5664 -0.0766 -1.0840
v  2.3930 -0.0504 -0.9088
v  2.3311 -0.0657 0.3060
v  1.8694 0.0065 0.3058
v  -0.1492 0.3316 -0.5126
v  -0.7269 0.4186 0.0714
v  -1.2450 0.5079 0.0714
v  -1.8190 0.6167 -0.3958
v  -1.9917 0.6464 -0.3958
v  -2.5693 0.7347 0.1298
v  -3.0874 0.8240 0.1298
v  -3.5464 0.9117 -0.2790
v  -3.6616 0.9316 -0.2790
v  -4.1238 1.0012 0.1882
v  1.8627 -0.0324 0.3050
v  5.6838 -0.6979 2.8756
v  6.0077 -0.7449 2.4628
v  5.0861 -0.5894 2.6186
v  5.6442 -0.9281 2.8707
v  5.0464 -0.8196 2.6137
v  5.9680 -0.9751 2.4579
v  5.2923 -0.7684 -1.7780
v  5.0604 -0.7384 -1.3108
v  5.3320 -0.5382 -1.7731
v  5.1001 -0.5082 -1.3059
v  5.4047 -0.8044 -0.9993
v  6.7689 -1.0745 0.6515
v  5.4443 -0.5742 -0.9944
v  6.8085 -0.8443 0.6564
v  5.7354 -0.9227 1.8784
v  5.3935 -0.8695 2.1465
v  5.7839 -0.6937 1.8694
v  5.4326 -0.6425 2.3072
v  7.1712 -1.1478 0.8380
v  7.2108 -0.9176 0.8429
v  7.2294 -1.1538 0.6515
v  7.2691 -0.9236 0.6564
v  5.9808 -0.9008 -1.1306
v  7.1725 -1.1401 0.4649
v  7.2122 -0.9098 0.4698
v  6.0206 -0.6701 -1.1502
v  5.6996 -0.6065 -1.5395
v  5.6599 -0.8367 -1.5444
# 163 vertices

vn -0.1697 -0.9853 -0.0210
vn 1.0000 0.0000 0.0000
vn 0.1697 0.9853 0.0210
vn 0.1175 0.6821 0.7218
vn -0.6994 0.1054 0.7070
vn -0.0036 -0.0207 0.9998
vn 0.0036 0.0207 -0.9998
vn -0.8799 0.1611 -0.4471
vn -0.6943 0.1347 -0.7070
vn -0.9118 0.1489 0.3826
vn -0.6994 0.1054 0.7069
vn -0.5298 0.2070 0.8225
vn -0.3804 0.0458 0.9237
vn -0.9091 0.1647 -0.3826
vn -0.5685 -0.0179 -0.8225
vn -0.3738 0.0841 -0.9237
vn -0.9854 0.1694 0.0156
vn -0.6943 0.1347 -0.7069
vn -0.6502 0.6413 0.4073
vn -0.9092 0.1643 -0.3826
vn -0.6646 0.4879 -0.5660
vn -0.4928 0.4358 -0.7531
vn -0.2264 0.7580 -0.6117
vn -0.6605 0.4723 0.5837
vn -0.5464 0.4668 0.6953
vn -0.2291 0.7390 0.6336
vn -0.8273 -0.3868 -0.4073
vn -0.6943 0.1346 -0.7070
vn -0.4001 0.4037 0.8227
vn -0.5465 0.4668 0.6953
vn -0.7724 -0.3218 0.5475
vn -0.7685 -0.2988 -0.5659
vn -0.3943 0.4375 -0.8082
vn -0.5416 0.4953 -0.6793
vn 0.5496 -0.0769 -0.8319
vn 0.2890 -0.0294 -0.9569
vn 0.1698 0.9853 0.0210
vn 0.0704 0.9940 0.0842
vn 0.1449 0.9894 0.0053
vn 0.1693 0.9854 0.0207
vn 0.1723 0.9849 0.0193
vn 0.6224 0.6562 0.4266
vn 0.1657 0.8315 -0.5302
vn 0.0791 0.4591 -0.8848
vn 0.0889 0.7270 -0.6809
vn 0.1075 0.8899 0.4434
vn 0.3500 -0.0403 -0.9359
vn -0.3497 0.0801 -0.9334
vn 0.3296 -0.0367 -0.9434
vn -0.9855 0.1697 -0.0000
vn -0.0617 0.0319 -0.9976
vn -0.5395 0.1107 -0.8347
vn -0.2466 0.0631 -0.9671
vn -0.9523 0.1694 -0.2537
vn -0.9764 0.1710 -0.1321
vn -0.8208 0.1531 -0.5504
vn 0.0035 0.0207 -0.9998
vn 0.9855 -0.1697 -0.0000
vn 0.7535 -0.1437 0.6416
vn 0.7535 -0.1435 0.6416
vn 0.4800 -0.1012 0.8714
vn 0.1712 0.9850 0.0197
vn -0.7692 0.1457 -0.6221
vn -0.7563 0.1166 0.6437
vn -0.7564 0.1163 0.6437
vn 0.7379 -0.1817 -0.6500
vn 0.7573 -0.1167 -0.6425
vn -0.7338 0.1121 0.6701
vn -0.7796 -0.2667 0.5666
vn 0.7863 -0.1482 0.5998
vn 0.8755 -0.1605 0.4558
vn -0.6698 0.2499 -0.6992
vn -0.6521 0.1282 -0.7472
vn -0.6745 0.4233 -0.6049
vn -0.6670 0.5035 -0.5492
vn -0.7476 0.1417 -0.6489
vn -0.7498 0.1334 -0.6481
vn -0.7496 0.1342 -0.6482
vn -0.7473 0.1426 -0.6490
vn 0.8768 -0.1436 -0.4589
vn 0.8771 -0.1413 -0.4591
vn 0.7790 -0.1807 -0.6004
vn 0.7784 -0.1850 -0.5999
vn 0.5253 -0.0724 -0.8478
vn 0.6491 -0.0957 -0.7547
vn 0.6505 -0.1052 -0.7522
vn -0.6574 0.0973 0.7472
vn -0.2535 0.0231 0.9671
vn -0.0688 -0.0094 0.9976
vn -0.5455 0.0762 0.8347
vn -0.8247 0.1303 0.5504
vn -0.9541 0.1589 0.2537
vn -0.9773 0.1655 0.1321
vn 0.7702 -0.1459 0.6209
vn 0.7616 -0.1666 -0.6263
vn 0.7627 -0.1841 -0.6200
vn 0.9394 -0.1682 0.2987
vn 0.9416 -0.1558 -0.2987
vn -0.1721 -0.9849 -0.0190
# 99 vertex normals

vt 1.0000 0.1014 0.0000
vt 1.0000 0.1294 0.0000
vt 1.0000 0.4284 0.0000
vt 1.0000 0.4654 0.0000
vt 1.0000 0.4915 0.0000
vt 1.0000 0.5913 0.0000
vt 1.0000 0.6266 0.0000
vt 1.0000 0.6344 0.0000
vt 1.0000 1.0000 0.0000
vt 0.9394 1.0000 0.0000
vt 0.8672 1.0000 0.0000
vt 0.8029 1.0000 0.0000
vt 0.7454 1.0000 0.0000
vt 0.7146 1.0000 0.0000
vt 0.6282 1.0000 0.0000
vt 0.5743 1.0000 0.0000
vt 0.4989 1.0000 0.0000
vt 0.4454 1.0000 0.0000
vt 0.3911 1.0000 0.0000
vt 0.3570 1.0000 0.0000
vt 0.3281 1.0000 0.0000
vt 0.1715 1.0000 0.0000
vt 0.1685 1.0000 0.0000
vt 0.1473 1.0000 0.0000
vt 0.1124 1.0000 0.0000
vt 0.1064 1.0000 0.0000
vt 0.1034 1.0000 0.0000
vt 0.0935 1.0000 0.0000
vt 0.0775 1.0000 0.0000
vt 0.0626 1.0000 0.0000
vt 0.0981 1.0000 0.0000
vt 0.0479 1.0000 0.0000
vt 0.0423 1.0000 0.0000
vt 0.0346 1.0000 0.0000
vt 0.0000 1.0000 0.0000
vt 0.1008 1.0000 0.0000
vt 0.0000 0.9098 0.0000
vt 0.0000 0.6159 0.0000
vt 0.0000 0.5880 0.0000
vt 0.0000 0.3914 0.0000
vt 0.0000 0.3691 0.0000
vt 0.0000 0.0644 0.0000
vt 0.0000 0.0000 0.0000
vt 0.0084 0.0000 0.0000
vt 0.0102 0.0000 0.0000
vt 0.0125 0.0000 0.0000
vt 0.0166 0.0000 0.0000
vt 0.0352 0.0000 0.0000
vt 0.0522 0.0000 0.0000
vt 0.0634 0.0000 0.0000
vt 0.0880 0.0000 0.0000
vt 0.1306 0.0000 0.0000
vt 0.1456 0.0000 0.0000
vt 0.1579 0.0000 0.0000
vt 0.1167 0.0000 0.0000
vt 0.1024 0.0000 0.0000
vt 1.0000 0.0456 0.0000
vt 1.0000 0.0000 0.0000
vt 0.8665 1.0000 0.0000
vt 0.8413 1.0000 0.0000
vt 0.8183 1.0000 0.0000
vt 0.8704 1.0000 0.0000
vt 0.7511 0.8757 0.0000
vt 0.8421 0.0000 0.0000
vt 0.8422 1.0000 0.0000
vt 0.3281 0.0000 0.0000
vt 0.3649 1.0000 0.0000
vt 0.1881 1.0000 0.0000
vt 0.1715 0.0000 0.0000
vt 0.8706 0.0000 0.0000
vt 0.8986 0.0000 0.0000
vt 0.9105 0.2804 0.0000
vt 0.8949 1.0000 0.0000
vt 0.8609 1.0000 0.0000
vt 0.5766 1.0000 0.0000
vt 0.5716 0.0000 0.0000
vt 0.5502 1.0000 0.0000
vt 0.5458 0.7142 0.0000
vt 0.5404 0.3707 0.0000
vt 0.5346 0.0000 0.0000
vt 0.3374 1.0000 0.0000
vt 0.3656 0.0000 0.0000
vt 0.3847 1.0000 0.0000
vt 0.9544 0.0000 0.0000
vt 0.9532 0.2887 0.0000
vt 0.9502 1.0000 0.0000
vt 0.9439 1.0000 0.0000
vt 0.9453 0.6683 0.0000
vt 0.9460 0.4816 0.0000
vt 0.9078 1.0000 0.0000
vt 0.9091 0.6552 0.0000
vt 0.9072 1.0000 0.0000
vt 0.9099 0.4635 0.0000
vt 0.3734 0.0000 0.0000
vt 0.3871 0.2707 0.0000
vt 0.3988 0.5017 0.0000
vt 0.4240 1.0000 0.0000
vt 0.4087 0.0000 0.0000
vt 0.4051 0.1104 0.0000
vt 0.3997 0.2789 0.0000
vt 0.5170 0.3555 0.0000
vt 0.5085 0.0000 0.0000
vt 0.5123 0.1596 0.0000
vt 0.9392 1.0000 0.0000
vt 0.9394 0.0000 0.0000
vt 0.0000 0.0561 0.0000
vt 0.0000 0.0498 0.0000
vt 0.8422 0.0000 0.0000
vt 0.8492 0.0000 0.0000
vt 0.8641 0.0000 0.0000
vt 0.8757 0.0000 0.0000
vt 0.8858 0.0000 0.0000
vt 0.8993 0.0000 0.0000
vt 0.9363 0.0000 0.0000
vt 0.9470 0.0000 0.0000
vt 0.9707 0.0000 0.0000
vt 0.9153 0.0000 0.0000
vt 0.9781 0.0000 0.0000
vt 0.9819 0.0000 0.0000
vt 0.9851 0.0000 0.0000
vt 1.0000 0.0729 0.0000
vt 0.0000 0.0922 0.0000
vt 1.0000 0.3733 0.0000
vt 1.0000 0.3949 0.0000
vt 1.0000 0.5856 0.0000
vt 1.0000 0.6141 0.0000
vt 1.0000 0.9020 0.0000
vt 0.9528 1.0000 0.0000
vt 0.9440 1.0000 0.0000
vt 0.9355 1.0000 0.0000
vt 0.9186 1.0000 0.0000
vt 0.9041 1.0000 0.0000
vt 0.8855 1.0000 0.0000
vt 0.8812 1.0000 0.0000
vt 0.8784 1.0000 0.0000
vt 0.8748 1.0000 0.0000
vt 0.7128 0.8357 0.0000
vt 0.3905 0.4999 0.0000
vt 0.0000 0.0928 0.0000
vt 0.0000 0.4498 0.0000
vt 0.0000 0.4234 0.0000
vt 0.0000 0.1391 0.0000
vt 0.0000 0.5760 0.0000
vt 0.0000 0.6153 0.0000
vt 0.0000 0.1051 0.0000
vt 0.3670 0.5068 0.0000
vt 0.6351 1.0000 0.0000
vt 0.6040 1.0000 0.0000
vt 0.5719 1.0000 0.0000
vt 0.5219 1.0000 0.0000
vt 0.4794 1.0000 0.0000
vt 0.4199 1.0000 0.0000
vt 0.3691 1.0000 0.0000
vt 0.2833 1.0000 0.0000
vt 0.2515 1.0000 0.0000
vt 0.1956 1.0000 0.0000
vt 0.1315 1.0000 0.0000
vt 0.0608 1.0000 0.0000
vt 0.0000 0.6626 0.0000
vt 0.4451 0.5933 0.0000
vt 0.8119 1.0000 0.0000
vt 0.8685 1.0000 0.0000
vt 0.8672 0.0000 0.0000
vt 0.8044 1.0000 0.0000
vt 0.8029 0.0000 0.0000
vt 0.7485 1.0000 0.0000
vt 0.7454 0.0000 0.0000
vt 0.7167 1.0000 0.0000
vt 0.7146 0.0000 0.0000
vt 0.6309 1.0000 0.0000
vt 0.6282 0.0000 0.0000
vt 0.5801 1.0000 0.0000
vt 0.5743 0.0000 0.0000
vt 0.5206 1.0000 0.0000
vt 0.4989 0.0000 0.0000
vt 0.4781 1.0000 0.0000
vt 0.4454 0.0000 0.0000
vt 0.4281 1.0000 0.0000
vt 0.3911 0.0000 0.0000
vt 0.3960 1.0000 0.0000
vt 0.3570 0.0000 0.0000
vt 0.1817 1.0000 0.0000
vt 0.1587 1.0000 0.0000
vt 0.1473 0.0000 0.0000
vt 0.1685 0.0000 0.0000
vt 0.1335 1.0000 0.0000
vt 0.1124 0.0000 0.0000
vt 0.1252 1.0000 0.0000
vt 0.1034 0.0000 0.0000
vt 0.1064 0.0000 0.0000
vt 0.1296 1.0000 0.0000
vt 0.0959 1.0000 0.0000
vt 0.0775 0.0000 0.0000
vt 0.0935 0.0000 0.0000
vt 0.1145 1.0000 0.0000
vt 0.0814 1.0000 0.0000
vt 0.0626 0.0000 0.0000
vt 0.1216 1.0000 0.0000
vt 0.1008 0.0000 0.0000
vt 0.0981 0.0000 0.0000
vt 0.1188 1.0000 0.0000
vt 0.0645 1.0000 0.0000
vt 0.0479 0.0000 0.0000
vt 0.0560 1.0000 0.0000
vt 0.0423 0.0000 0.0000
vt 0.0472 1.0000 0.0000
vt 0.0346 0.0000 0.0000
vt 0.9098 0.0000 0.0000
vt 0.9020 1.0000 0.0000
vt 0.6141 1.0000 0.0000
vt 0.6159 0.0000 0.0000
vt 0.5880 0.0000 0.0000
vt 0.5856 1.0000 0.0000
vt 0.3949 1.0000 0.0000
vt 0.3914 0.0000 0.0000
vt 0.3691 0.0000 0.0000
vt 0.3733 1.0000 0.0000
vt 0.0729 1.0000 0.0000
vt 0.0644 0.0000 0.0000
vt 0.3241 0.0000 0.0000
vt 0.3226 1.0000 0.0000
vt 0.3540 0.0000 0.0000
vt 0.3548 1.0000 0.0000
vt 0.5776 0.0000 0.0000
vt 0.3731 0.0000 0.0000
vt 0.3748 1.0000 0.0000
vt 0.5836 1.0000 0.0000
vt 0.7912 1.0000 0.0000
vt 0.7800 0.0000 0.0000
vt 0.8544 0.0000 0.0000
vt 0.8492 1.0000 0.0000
vt 0.8833 0.0000 0.0000
vt 0.8757 1.0000 0.0000
vt 0.8641 1.0000 0.0000
vt 0.8694 0.0000 0.0000
vt 0.8976 0.0000 0.0000
vt 0.8858 1.0000 0.0000
vt 0.9120 0.0000 0.0000
vt 0.8993 1.0000 0.0000
vt 0.9366 0.0000 0.0000
vt 0.9153 1.0000 0.0000
vt 0.9478 0.0000 0.0000
vt 0.9363 1.0000 0.0000
vt 0.9648 0.0000 0.0000
vt 0.9470 1.0000 0.0000
vt 0.9834 0.0000 0.0000
vt 0.9707 1.0000 0.0000
vt 0.9875 0.0000 0.0000
vt 0.9781 1.0000 0.0000
vt 0.9898 0.0000 0.0000
vt 0.9819 1.0000 0.0000
vt 0.9916 0.0000 0.0000
vt 0.9851 1.0000 0.0000
# 253 texture coords

o Key
g Key
usemtl wire_028149177
s 2
f 1/1/1 2/2/1 3/3/1 
f 3/3/1 4/4/1 5/5/1 
f 1/1/1 3/3/1 5/5/1 
f 6/6/1 7/7/1 8/8/1 
f 8/8/1 9/9/1 10/10/1 
f 6/6/1 8/8/1 10/10/1 
f 6/6/1 10/10/1 11/11/1 
f 11/11/1 12/12/1 13/13/1 
f 11/11/1 13/13/1 14/14/1 
f 11/11/1 14/14/1 15/15/1 
f 6/6/1 11/11/1 15/15/1 
f 15/15/1 16/16/1 17/17/1 
f 15/15/1 17/17/1 18/18/1 
f 15/15/1 18/18/1 19/19/1 
f 6/6/1 15/15/1 19/19/1 
f 19/19/1 20/20/1 21/21/1 
f 19/19/1 21/21/1 22/22/1 
f 6/6/1 19/19/1 22/22/1 
f 22/22/1 23/23/2 23/24/1 
f 22/22/1 23/24/1 24/25/1 
f 6/6/1 22/22/1 24/25/1 
f 6/6/1 24/25/1 25/26/1 
f 6/6/1 25/26/1 26/27/1 
f 27/28/1 28/29/1 29/30/1 
f 30/31/1 27/28/1 29/30/1 
f 29/30/1 31/32/1 32/33/1 
f 32/33/1 33/34/1 34/35/1 
f 29/30/1 32/33/1 34/35/1 
f 30/31/1 29/30/1 34/35/1 
f 35/36/1 30/31/1 34/35/1 
f 26/27/1 35/36/1 34/35/1 
f 6/6/1 26/27/1 34/35/1 
f 5/5/1 6/6/1 34/35/1 
f 34/35/1 36/37/1 37/38/1 
f 37/38/1 38/39/1 39/40/1 
f 37/38/1 39/40/1 40/41/1 
f 34/35/1 37/38/1 40/41/1 
f 41/42/1 42/43/1 43/44/1 
f 40/41/1 41/42/1 43/44/1 
f 43/44/1 44/45/1 45/46/1 
f 45/46/1 46/47/1 47/48/1 
f 43/44/1 45/46/1 47/48/1 
f 40/41/1 43/44/1 47/48/1 
f 34/35/1 40/41/1 47/48/1 
f 34/35/1 47/48/1 48/49/1 
f 34/35/1 48/49/1 49/50/1 
f 5/5/1 34/35/1 49/50/1 
f 5/5/1 49/50/1 50/51/1 
f 51/52/1 52/53/1 53/54/1 
f 54/55/1 51/52/1 53/54/1 
f 55/56/1 54/55/1 53/54/1 
f 50/51/1 55/56/1 53/54/1 
f 5/5/1 50/51/1 53/54/1 
f 1/1/1 5/5/1 53/54/1 
f 56/57/1 1/1/1 53/54/1 
f 57/58/1 56/57/1 53/54/1 
s 4
f 58/59/3 59/60/3 60/61/4 
f 61/62/3 58/59/3 60/61/4 
f 61/62/3 60/61/4 62/63/3 
s 8
f 53/64/5 63/65/5 64/35/6 
f 64/35/6 57/43/6 53/64/5 
s 32
f 21/66/7 65/67/7 66/68/8 
f 66/68/8 22/69/9 21/66/7 
s 64
f 2/70/10 1/71/11 67/72/12 
f 2/70/10 67/72/12 68/73/13 
f 2/70/10 68/73/13 69/74/10 
f 70/75/14 3/76/14 2/70/10 
f 2/70/10 69/74/10 70/75/14 
f 70/75/14 71/77/9 72/78/9 
f 70/75/14 72/78/9 73/79/15 
f 70/75/14 73/79/15 4/80/16 
f 70/75/14 4/80/16 3/76/14 
f 74/81/17 75/35/18 9/43/9 
f 74/81/17 9/43/9 8/82/18 
f 76/83/18 74/81/17 8/82/18 
f 56/84/11 77/85/19 67/72/12 
f 67/72/12 1/71/11 56/84/11 
f 57/58/11 64/9/11 78/86/20 
f 57/58/11 78/86/20 77/85/19 
f 56/84/11 57/58/11 77/85/19 
f 79/87/21 80/88/22 81/89/23 
f 78/86/20 79/87/21 81/89/23 
f 77/85/19 78/86/20 81/89/23 
f 79/87/21 82/90/24 83/91/25 
f 83/91/25 80/88/22 79/87/21 
f 84/92/6 68/73/13 67/72/12 
f 82/90/24 84/92/6 67/72/12 
f 82/90/24 67/72/12 85/93/26 
f 82/90/24 85/93/26 83/91/25 
f 85/93/26 67/72/12 77/85/19 
f 77/85/19 81/89/23 85/93/26 
f 85/93/26 81/89/23 80/88/22 
f 80/88/22 83/91/25 85/93/26 
f 76/83/18 8/82/18 7/94/10 
f 76/83/18 7/94/10 86/95/27 
f 76/83/18 86/95/27 87/96/28 
f 88/97/18 76/83/18 87/96/28 
f 88/97/18 87/96/28 72/78/9 
f 72/78/9 71/77/9 88/97/18 
f 6/98/29 89/99/30 90/100/31 
f 7/94/10 6/98/29 90/100/31 
f 86/95/27 7/94/10 90/100/31 
f 86/95/27 90/100/31 91/101/32 
f 86/95/27 91/101/32 73/79/15 
f 87/96/28 86/95/27 73/79/15 
f 87/96/28 73/79/15 72/78/9 
f 5/102/33 92/103/34 89/99/30 
f 89/99/30 6/98/29 5/102/33 
f 73/79/15 91/101/32 92/103/34 
f 4/80/16 73/79/15 92/103/34 
f 5/102/33 4/80/16 92/103/34 
f 91/101/32 90/100/31 89/99/30 
f 89/99/30 92/103/34 91/101/32 
s 32
f 9/58/35 75/9/35 93/104/36 
f 93/104/36 10/105/36 9/58/35 
s 4
f 79/106/3 78/107/3 64/43/3 
f 79/106/3 64/43/3 63/108/3 
f 63/108/3 94/109/3 95/110/3 
f 63/108/3 95/110/3 96/111/3 
f 79/106/3 63/108/3 96/111/3 
f 79/106/3 96/111/3 97/112/3 
f 79/106/3 97/112/3 98/113/3 
f 99/114/3 100/115/3 101/116/3 
f 102/117/3 99/114/3 101/116/3 
f 101/116/3 103/118/3 104/119/3 
f 104/119/3 105/120/3 106/58/3 
f 101/116/3 104/119/3 106/58/3 
f 102/117/3 101/116/3 106/58/3 
f 98/113/3 102/117/3 106/58/3 
f 98/113/3 106/58/3 107/121/3 
f 79/106/3 98/113/3 107/121/3 
f 82/122/3 79/106/3 107/121/3 
f 108/123/3 109/124/3 110/125/3 
f 108/123/3 110/125/3 111/126/3 
f 111/126/3 112/127/3 113/9/3 
f 113/9/3 114/128/3 115/129/3 
f 111/126/3 113/9/3 115/129/3 
f 108/123/3 111/126/3 115/129/3 
f 107/121/3 108/123/3 115/129/3 
f 115/129/3 116/130/3 117/131/3 
f 117/131/3 118/132/3 119/133/3 
f 115/129/3 117/131/3 119/133/3 
f 115/129/3 119/133/3 120/134/37 
f 115/129/3 120/134/37 121/135/3 
f 107/121/3 115/129/3 121/135/3 
f 107/121/3 121/135/3 122/136/3 
f 107/121/3 122/136/3 61/62/3 
f 107/121/3 61/62/3 62/63/3 
f 62/63/3 62/137/38 123/138/39 
f 107/121/3 62/63/3 123/138/39 
f 82/122/3 107/121/3 123/138/39 
f 84/139/40 82/122/3 123/138/39 
f 71/140/3 70/141/3 69/142/41 
f 88/143/42 71/140/3 69/142/41 
f 76/144/43 88/143/42 69/142/41 
f 69/142/41 68/145/3 84/139/40 
f 76/144/43 69/142/41 84/139/40 
f 76/144/43 84/139/40 123/138/39 
f 76/144/43 123/138/39 124/146/7 
f 65/147/3 125/148/3 126/149/3 
f 127/150/3 128/151/3 129/152/3 
f 127/150/3 129/152/3 130/153/3 
f 126/149/3 127/150/3 130/153/3 
f 131/154/3 132/155/3 133/156/3 
f 131/154/3 133/156/3 134/157/3 
f 130/153/3 131/154/3 134/157/3 
f 126/149/3 130/153/3 134/157/3 
f 93/158/3 75/35/3 74/159/44 
f 134/157/3 93/158/3 74/159/44 
f 126/149/3 134/157/3 74/159/44 
f 126/149/3 74/159/44 135/160/45 
f 65/147/3 126/149/3 135/160/45 
f 66/161/46 65/147/3 135/160/45 
f 76/144/43 124/146/7 135/160/45 
f 135/160/45 74/159/44 76/144/43 
s 32
f 10/105/36 93/104/36 134/162/16 
f 134/162/16 11/163/16 10/105/36 
f 11/163/16 134/162/16 133/164/16 
f 133/164/16 12/165/16 11/163/16 
f 12/165/16 133/164/16 132/166/47 
f 132/166/47 13/167/47 12/165/16 
f 13/167/47 132/166/47 131/168/47 
f 131/168/47 14/169/47 13/167/47 
f 14/169/47 131/168/47 130/170/48 
f 130/170/48 15/171/48 14/169/47 
f 15/171/48 130/170/48 129/172/48 
f 129/172/48 16/173/48 15/171/48 
f 16/173/48 129/172/48 128/174/49 
f 128/174/49 17/175/49 16/173/48 
f 17/175/49 128/174/49 127/176/49 
f 127/176/49 18/177/49 17/175/49 
f 18/177/49 127/176/49 126/178/16 
f 126/178/16 19/179/16 18/177/49 
f 19/179/16 126/178/16 125/180/16 
f 125/180/16 20/181/16 19/179/16 
f 20/181/16 125/180/16 65/67/7 
f 65/67/7 21/66/7 20/181/16 
f 66/68/8 60/182/50 59/183/9 
f 59/183/9 23/184/7 23/185/50 
f 59/183/9 23/185/50 22/69/9 
f 66/68/8 59/183/9 22/69/9 
s 4
f 135/160/45 124/146/7 123/138/39 
f 135/160/45 123/138/39 62/137/38 
f 66/161/46 135/160/45 62/137/38 
s 32
f 58/186/51 24/187/51 23/184/7 
f 23/184/7 59/183/9 58/186/51 
s 4
f 62/137/38 62/63/3 60/61/4 
f 60/61/4 66/161/46 62/137/38 
s 32
f 122/188/52 26/189/52 25/190/53 
f 25/190/53 61/191/53 122/188/52 
f 61/191/53 25/190/53 24/187/51 
f 24/187/51 58/186/51 61/191/53 
f 118/192/54 28/193/54 27/194/55 
f 27/194/55 119/195/55 118/192/54 
f 117/196/56 29/197/56 28/193/54 
f 28/193/54 118/192/54 117/196/56 
f 121/198/56 35/199/56 26/189/52 
f 26/189/52 122/188/52 121/198/56 
f 119/195/55 27/194/55 30/200/54 
f 30/200/54 120/201/54 119/195/55 
f 120/201/54 30/200/54 35/199/56 
f 35/199/56 121/198/56 120/201/54 
f 116/202/52 31/203/52 29/197/56 
f 29/197/56 117/196/56 116/202/52 
f 115/204/53 32/205/53 31/203/52 
f 31/203/52 116/202/52 115/204/53 
f 114/206/51 33/207/51 32/205/53 
f 32/205/53 115/204/53 114/206/51 
f 113/35/57 34/43/57 33/207/51 
f 33/207/51 114/206/51 113/35/57 
s 16
f 36/208/58 112/209/58 111/210/58 
f 111/210/58 37/211/58 36/208/58 
f 38/212/59 110/213/59 109/214/60 
f 109/214/60 39/215/60 38/212/59 
f 40/216/58 108/217/58 107/218/58 
f 107/218/58 41/219/58 40/216/58 
s off
f 106/35/3 136/35/3 137/35/3 
f 106/35/3 137/35/3 138/218/3 
f 107/218/3 106/35/3 138/218/3 
f 42/43/61 139/43/61 136/35/61 
f 136/35/61 106/35/61 42/43/61 
f 42/43/1 41/219/1 140/219/1 
f 42/43/1 140/219/1 141/43/1 
f 42/43/1 141/43/1 139/43/1 
f 107/218/7 138/218/7 140/219/7 
f 140/219/7 41/219/7 107/218/7 
f 36/208/1 34/58/1 142/58/1 
f 142/58/1 143/208/1 36/208/1 
f 113/9/7 144/9/7 142/58/7 
f 142/58/7 34/58/7 113/9/7 
f 112/209/3 145/209/3 144/9/3 
f 144/9/3 113/9/3 112/209/3 
f 36/208/6 143/208/6 145/209/6 
f 145/209/6 112/209/6 36/208/6 
f 38/212/1 37/211/1 146/211/1 
f 146/211/62 147/212/62 38/212/62 
f 111/210/63 148/210/63 146/211/63 
f 146/211/63 37/211/63 111/210/63 
f 111/210/3 110/213/3 148/210/3 
f 38/212/64 147/212/64 149/213/64 
f 149/213/65 110/213/65 38/212/65 
f 40/216/1 39/215/1 150/215/1 
f 150/215/1 151/216/1 40/216/1 
f 109/214/66 152/214/66 150/215/66 
f 150/215/67 39/215/67 109/214/67 
f 108/217/3 153/217/3 152/214/3 
f 152/214/3 109/214/3 108/217/3 
f 108/217/68 40/216/68 151/216/68 
f 151/216/69 153/217/69 108/217/69 
s 1
f 141/43/70 154/220/71 155/221/71 
f 155/221/71 137/35/70 141/43/70 
s 2
f 141/43/1 140/219/1 151/216/1 
f 141/43/1 151/216/1 150/215/1 
f 141/43/1 150/215/1 156/222/1 
f 141/43/1 156/222/1 154/220/1 
s 1
f 140/219/72 138/218/73 153/217/74 
f 153/217/74 151/216/75 140/219/72 
s 2
f 137/35/3 155/221/3 157/223/3 
f 157/223/3 152/214/3 153/217/3 
f 137/35/3 157/223/3 153/217/3 
f 138/218/3 137/35/3 153/217/3 
s 4
f 147/212/1 146/211/1 158/224/1 
f 158/224/1 159/225/1 156/222/1 
f 147/212/1 158/224/1 156/222/1 
f 147/212/1 156/222/1 150/215/1 
f 149/213/3 152/214/3 157/223/3 
f 148/210/3 149/213/3 157/223/3 
f 148/210/3 157/223/3 160/226/3 
f 148/210/3 160/226/3 161/227/3 
s 8
f 147/212/76 150/215/77 152/214/78 
f 152/214/78 149/213/79 147/212/76 
f 160/226/80 159/225/81 158/224/82 
f 158/224/82 161/227/83 160/226/80 
s 1
f 144/9/84 162/228/85 163/229/86 
f 163/229/86 142/58/84 144/9/84 
s 2
f 148/210/3 161/227/3 162/228/3 
f 145/209/3 148/210/3 162/228/3 
f 144/9/3 145/209/3 162/228/3 
s 1
f 143/208/87 146/211/87 148/210/87 
f 148/210/87 145/209/87 143/208/87 
s 2
f 163/229/1 158/224/1 146/211/1 
f 142/58/1 163/229/1 146/211/1 
f 143/208/1 142/58/1 146/211/1 
s 8
f 52/230/5 94/231/5 63/65/5 
f 63/65/5 53/64/5 52/230/5 
f 54/232/88 96/233/88 95/234/89 
f 95/234/89 51/235/89 54/232/88 
f 51/235/89 95/234/89 94/231/5 
f 94/231/5 52/230/5 51/235/89 
f 55/236/90 97/237/90 96/233/88 
f 96/233/88 54/232/88 55/236/90 
f 50/238/91 98/239/91 97/237/90 
f 97/237/90 55/236/90 50/238/91 
f 49/240/92 102/241/92 98/239/91 
f 98/239/91 50/238/91 49/240/92 
f 48/242/93 99/243/93 102/241/92 
f 102/241/92 49/240/92 48/242/93 
f 47/244/92 100/245/92 99/243/93 
f 99/243/93 48/242/93 47/244/92 
f 46/246/91 101/247/91 100/245/92 
f 100/245/92 47/244/92 46/246/91 
f 45/248/90 103/249/90 101/247/91 
f 101/247/91 46/246/91 45/248/90 
f 44/250/88 104/251/88 103/249/90 
f 103/249/90 45/248/90 44/250/88 
f 43/252/89 105/253/89 104/251/88 
f 104/251/88 44/250/88 43/252/89 
f 42/58/6 106/9/6 105/253/89 
f 105/253/89 43/252/89 42/58/6 
s off
f 141/43/94 137/35/94 136/35/94 
f 136/35/94 139/43/94 141/43/94 
s 1
f 161/227/95 158/224/96 163/229/86 
f 163/229/86 162/228/85 161/227/95 
f 156/222/97 157/223/97 155/221/71 
f 155/221/71 154/220/71 156/222/97 
s 8
f 157/223/98 156/222/98 159/225/81 
f 159/225/81 160/226/80 157/223/98 
s off
f 110/213/99 149/213/99 148/210/99 
# 338 faces

