# 3ds Max Wavefront OBJ Exporter v0.99 - (c)2007 guruware
# File Created: 07.04.2022 21:48:48

mtllib keyObj.mtl

#
# object Key
#

v  -19.7500 0.0000 5.2500
v  -20.0000 0.0000 5.0000
v  -20.0000 0.0000 4.5000
v  -19.7500 0.0000 4.2500
v  16.5000 0.0000 4.2500
v  16.5000 0.0000 2.2500
v  -17.7500 0.0000 2.2500
v  -17.5000 0.0000 2.0000
v  -16.0000 0.0000 0.5000
v  -14.5000 0.0000 1.5000
v  -13.0000 0.0000 1.5000
v  -11.0000 0.0000 -0.5000
v  -10.5000 0.0000 -0.5000
v  -8.5000 0.0000 1.2500
v  -6.2500 0.0000 1.2500
v  -3.7500 0.0000 -1.0000
v  -3.0000 0.0000 -1.0000
v  -0.5000 0.0000 1.0000
v  1.7500 0.0000 1.0000
v  4.2500 0.0000 -1.5000
v  6.5000 0.0000 -1.5000
v  13.0000 0.0000 -1.5000
v  13.0000 0.0000 -2.9999
v  14.2500 0.0000 -2.9999
v  15.0000 0.0000 -3.0999
v  15.2500 0.0000 -3.1999
v  16.2000 0.0000 -4.9499
v  16.3000 0.0000 -5.6999
v  16.4000 0.0000 -5.9499
v  16.1000 0.0000 -4.1999
v  17.1500 0.0000 -6.6999
v  17.4000 0.0000 -6.7999
v  18.1500 0.0000 -6.8999
v  20.0000 0.0000 -6.9000
v  16.0000 0.0000 -3.9499
v  24.0750 0.0000 -4.9000
v  24.0750 0.0000 2.0000
v  30.0000 0.0000 -1.7884
v  25.5750 0.0000 3.5000
v  24.0750 0.0000 5.0000
v  24.0750 0.0000 11.9000
v  28.0000 0.0000 13.9000
v  18.1500 0.0000 13.9000
v  17.4000 0.0000 13.8000
v  17.1500 0.0000 13.7000
v  16.4000 0.0000 12.9500
v  16.3000 0.0000 12.7000
v  16.2000 0.0000 11.9500
v  16.1000 0.0000 11.2000
v  16.0000 0.0000 10.9500
v  14.2500 0.0000 10.0000
v  13.0000 0.0000 10.0000
v  13.0000 0.0000 7.5000
v  15.0000 0.0000 10.1000
v  15.2500 0.0000 10.2000
v  -17.7500 0.0000 7.2500
v  -17.5000 0.0000 7.5000
v  14.2500 1.0000 -2.9999
v  13.0000 1.0000 -2.9999
v  13.0000 1.0000 -1.5000
v  15.0000 1.0000 -3.0999
v  15.0000 1.0000 -1.5000
v  13.0000 1.0000 7.5000
v  -17.5000 1.0000 7.5000
v  6.5000 0.8000 -1.5000
v  13.0000 0.8000 -1.5000
v  -19.7500 0.2000 5.2500
v  -19.7500 1.0000 5.2500
v  -20.0000 1.0000 5.0000
v  -20.0000 1.0000 4.5000
v  -19.7500 1.0000 4.2500
v  -19.7500 0.9000 4.2500
v  -19.7500 0.8000 4.2500
v  -17.5000 0.8000 2.0000
v  -16.0000 0.8000 0.5000
v  -17.5000 0.9687 2.0000
v  -17.7500 0.2000 7.2500
v  -17.7500 1.0000 7.2500
v  17.0003 1.0000 7.2328
v  16.8000 0.6000 7.2500
v  16.5000 0.2000 7.2500
v  17.0000 1.0000 5.2500
v  16.8000 0.6000 5.2500
v  15.0000 1.0000 5.2500
v  16.5000 0.2000 5.2500
v  -17.7500 0.8000 2.2500
v  -17.7500 0.9000 2.2500
v  -17.7500 1.0000 2.2500
v  16.8000 0.4000 2.2500
v  17.0000 0.8000 2.2500
v  17.0000 0.8000 4.2500
v  16.8000 0.4000 4.2500
v  -14.5000 0.8000 1.5000
v  13.0000 1.0000 10.0000
v  14.2500 1.0000 10.0000
v  15.0000 1.0000 10.1000
v  15.2500 1.0000 10.2000
v  16.0000 1.0000 10.9500
v  16.2000 1.0000 11.9500
v  16.3000 1.0000 12.7000
v  16.4000 1.0000 12.9500
v  16.1000 1.0000 11.2000
v  17.1500 1.0000 13.7000
v  17.4000 1.0000 13.8000
v  18.1500 1.0000 13.9000
v  28.0000 1.0000 13.9000
v  24.0750 1.0000 11.9000
v  24.0750 1.0000 5.0000
v  25.5750 1.0000 3.5000
v  30.0000 1.0000 -1.7880
v  24.0750 1.0000 2.0000
v  24.0750 1.0000 -4.9000
v  20.0000 1.0000 -6.9000
v  18.1500 1.0000 -6.8999
v  17.4000 1.0000 -6.7999
v  17.1500 1.0000 -6.6999
v  16.4000 1.0000 -5.9499
v  16.3000 1.0000 -5.6999
v  16.2000 1.0000 -4.9499
v  16.1000 1.0000 -4.1999
v  16.0000 1.0000 -3.9499
v  15.2500 1.0000 -3.1999
v  15.0000 1.0000 2.0000
v  13.0000 0.9687 2.0000
v  4.2500 0.8000 -1.5000
v  1.7500 0.8000 1.0000
v  -0.5000 0.8000 1.0000
v  -3.0000 0.8000 -1.0000
v  -3.7500 0.8000 -1.0000
v  -6.2500 0.8000 1.2500
v  -8.5000 0.8000 1.2500
v  -10.5000 0.8000 -0.5000
v  -11.0000 0.8000 -0.5000
v  -13.0000 0.8000 1.5000
v  13.0000 0.8000 2.0000
v  29.6000 1.0000 13.0000
v  31.0000 1.0000 11.2330
v  27.0000 1.0000 11.9000
v  29.6000 -0.0000 13.0000
v  27.0000 -0.0000 11.9000
v  31.0000 -0.0000 11.2330
v  28.0000 0.0000 -6.9000
v  27.0000 0.0000 -4.9000
v  28.0000 1.0000 -6.9000
v  27.0000 1.0000 -4.9000
v  28.5000 0.0000 -3.5667
v  34.4500 0.0000 3.5000
v  28.5000 1.0000 -3.5667
v  34.4500 1.0000 3.5000
v  29.9809 0.0000 8.7521
v  28.5000 0.0000 9.9000
v  30.0191 1.0000 8.6927
v  28.5000 1.0000 10.5667
v  36.2000 0.0000 4.2987
v  36.2000 1.0000 4.2987
v  36.4500 0.0000 3.5000
v  36.4500 1.0000 3.5000
v  31.0000 0.0000 -4.1285
v  36.2000 0.0000 2.7013
v  36.2000 1.0000 2.7013
v  31.0000 1.0000 -4.2334
v  29.6000 1.0000 -5.9000
v  29.6000 0.0000 -5.9000
# 163 vertices

vn 0.0000 -1.0000 -0.0000
vn 1.0000 0.0000 -0.0000
vn -0.0000 1.0000 0.0000
vn -0.0000 1.0000 -0.0000
vn -0.0000 0.7071 0.7071
vn -0.7071 0.0000 0.7071
vn 0.0000 0.0000 1.0000
vn 0.0000 0.0000 -1.0000
vn -0.8944 0.0000 -0.4472
vn -0.7071 0.0000 -0.7071
vn -0.9239 0.0000 0.3827
vn -0.5572 0.1313 0.8199
vn -0.3827 0.0000 0.9239
vn -0.9239 0.0000 -0.3827
vn -0.5572 -0.1313 -0.8199
vn -0.3827 0.0000 -0.9239
vn -0.7497 0.5301 0.3963
vn -0.9239 -0.0004 -0.3827
vn -0.7378 0.3560 -0.5736
vn -0.5597 0.3300 -0.7602
vn -0.3518 0.6955 -0.6265
vn -0.7310 0.3655 0.5762
vn -0.6177 0.3818 0.6875
vn -0.3513 0.7025 0.6189
vn -0.7497 -0.5301 -0.3963
vn -0.4629 0.3472 0.8156
vn -0.6178 0.3818 0.6874
vn -0.7066 -0.4367 0.5568
vn -0.7066 -0.4367 -0.5568
vn -0.4629 0.3472 -0.8156
vn -0.6178 0.3818 -0.6874
vn 0.5547 0.0000 -0.8321
vn 0.2898 0.0000 -0.9571
vn 0.0000 1.0000 -0.0000
vn -0.0993 0.9930 0.0633
vn -0.0251 0.9996 -0.0157
vn -0.0004 1.0000 -0.0003
vn 0.0027 1.0000 -0.0017
vn 0.5020 0.7611 0.4107
vn 0.0221 0.8363 -0.5479
vn 0.0000 0.4472 -0.8944
vn -0.0358 0.7171 -0.6961
vn -0.0451 0.9043 0.4245
vn 0.3517 0.0000 -0.9361
vn -0.3583 0.0000 -0.9336
vn 0.3310 0.0000 -0.9436
vn -1.0000 0.0000 -0.0000
vn -0.0662 0.0000 -0.9978
vn -0.5505 0.0000 -0.8348
vn -0.2537 0.0000 -0.9673
vn -0.9673 0.0000 -0.2537
vn -0.9912 0.0000 -0.1322
vn -0.8348 0.0000 -0.5505
vn -0.0663 0.0000 -0.9978
vn -0.0000 0.0000 -1.0000
vn 0.7669 -0.0003 0.6417
vn 0.7669 -0.0003 0.6418
vn 0.7669 -0.0000 0.6417
vn 0.7669 0.0000 0.6417
vn 0.4903 0.0000 0.8716
vn -0.0000 -1.0000 0.0000
vn 0.0000 -1.0000 0.0000
vn -0.0000 -0.0000 -1.0000
vn -0.0000 0.0000 1.0000
vn 0.0000 -0.0000 1.0000
vn -0.0000 -1.0000 -0.0000
vn 0.0016 1.0000 -0.0013
vn -0.7828 0.0000 -0.6223
vn 0.0000 1.0000 0.0000
vn -0.7652 0.0000 0.6438
vn -0.7651 -0.0003 0.6439
vn 0.7580 -0.0675 -0.6487
vn 0.7661 0.0000 -0.6427
vn -0.7422 -0.0000 0.6702
vn -0.7231 -0.3832 0.5748
vn 0.8000 0.0000 0.5999
vn 0.8900 0.0000 0.4559
vn -0.7025 0.1179 -0.7019
vn -0.6644 0.0000 -0.7474
vn -0.7365 0.2899 -0.6112
vn -0.7428 0.3714 -0.5571
vn -0.7608 -0.0009 -0.6490
vn -0.7616 -0.0094 -0.6480
vn -0.7615 -0.0086 -0.6481
vn -0.7607 0.0000 -0.6491
vn 0.8885 -0.0024 -0.4589
vn 0.8884 0.0000 -0.4592
vn 0.7984 -0.0584 -0.5993
vn 0.7985 -0.0628 -0.5987
vn 0.5300 -0.0000 -0.8480
vn 0.6559 0.0000 -0.7549
vn 0.6589 -0.0090 -0.7521
vn -0.6644 0.0000 0.7474
vn -0.2537 0.0000 0.9673
vn -0.0662 0.0000 0.9978
vn -0.5505 0.0000 0.8348
vn -0.8348 0.0000 0.5505
vn -0.9673 0.0000 0.2537
vn -0.9912 0.0000 0.1322
vn 0.7838 0.0000 0.6210
vn 0.7788 -0.0480 -0.6254
vn 0.7829 -0.0649 -0.6187
vn 0.9543 0.0000 0.2987
vn 0.9543 0.0000 -0.2987
vn -0.0018 -1.0000 0.0015
# 105 vertex normals

vt 1.0000 0.1014 0.0000
vt 1.0000 0.1294 0.0000
vt 1.0000 0.4284 0.0000
vt 1.0000 0.4654 0.0000
vt 1.0000 0.4915 0.0000
vt 1.0000 0.5913 0.0000
vt 1.0000 0.6266 0.0000
vt 1.0000 0.6344 0.0000
vt 1.0000 1.0000 0.0000
vt 0.9394 1.0000 0.0000
vt 0.8672 1.0000 0.0000
vt 0.8029 1.0000 0.0000
vt 0.7454 1.0000 0.0000
vt 0.7146 1.0000 0.0000
vt 0.6282 1.0000 0.0000
vt 0.5743 1.0000 0.0000
vt 0.4989 1.0000 0.0000
vt 0.4454 1.0000 0.0000
vt 0.3911 1.0000 0.0000
vt 0.3570 1.0000 0.0000
vt 0.3281 1.0000 0.0000
vt 0.1715 1.0000 0.0000
vt 0.1685 1.0000 0.0000
vt 0.1473 1.0000 0.0000
vt 0.1124 1.0000 0.0000
vt 0.1064 1.0000 0.0000
vt 0.1034 1.0000 0.0000
vt 0.0935 1.0000 0.0000
vt 0.0775 1.0000 0.0000
vt 0.0626 1.0000 0.0000
vt 0.0981 1.0000 0.0000
vt 0.0479 1.0000 0.0000
vt 0.0423 1.0000 0.0000
vt 0.0346 1.0000 0.0000
vt 0.0000 1.0000 0.0000
vt 0.1008 1.0000 0.0000
vt 0.0000 0.9098 0.0000
vt 0.0000 0.6159 0.0000
vt 0.0000 0.5880 0.0000
vt 0.0000 0.3914 0.0000
vt 0.0000 0.3691 0.0000
vt 0.0000 0.0644 0.0000
vt 0.0000 0.0000 0.0000
vt 0.0084 0.0000 0.0000
vt 0.0102 0.0000 0.0000
vt 0.0125 0.0000 0.0000
vt 0.0166 0.0000 0.0000
vt 0.0352 0.0000 0.0000
vt 0.0522 0.0000 0.0000
vt 0.0634 0.0000 0.0000
vt 0.0880 0.0000 0.0000
vt 0.1306 0.0000 0.0000
vt 0.1456 0.0000 0.0000
vt 0.1579 0.0000 0.0000
vt 0.1167 0.0000 0.0000
vt 0.1024 0.0000 0.0000
vt 1.0000 0.0456 0.0000
vt 1.0000 0.0000 0.0000
vt 0.8665 1.0000 0.0000
vt 0.8413 1.0000 0.0000
vt 0.8183 1.0000 0.0000
vt 0.8704 1.0000 0.0000
vt 0.7511 0.8757 0.0000
vt 0.8421 0.0000 0.0000
vt 0.8422 1.0000 0.0000
vt 0.3281 0.0000 0.0000
vt 0.3649 1.0000 0.0000
vt 0.1881 1.0000 0.0000
vt 0.1715 0.0000 0.0000
vt 0.8706 0.0000 0.0000
vt 0.8986 0.0000 0.0000
vt 0.9105 0.2804 0.0000
vt 0.8949 1.0000 0.0000
vt 0.8609 1.0000 0.0000
vt 0.5766 1.0000 0.0000
vt 0.5716 0.0000 0.0000
vt 0.5502 1.0000 0.0000
vt 0.5458 0.7142 0.0000
vt 0.5404 0.3707 0.0000
vt 0.5346 0.0000 0.0000
vt 0.3374 1.0000 0.0000
vt 0.3656 0.0000 0.0000
vt 0.3847 1.0000 0.0000
vt 0.9544 0.0000 0.0000
vt 0.9532 0.2887 0.0000
vt 0.9502 1.0000 0.0000
vt 0.9439 1.0000 0.0000
vt 0.9453 0.6683 0.0000
vt 0.9460 0.4816 0.0000
vt 0.9078 1.0000 0.0000
vt 0.9091 0.6552 0.0000
vt 0.9072 1.0000 0.0000
vt 0.9099 0.4635 0.0000
vt 0.3734 0.0000 0.0000
vt 0.3871 0.2707 0.0000
vt 0.3988 0.5017 0.0000
vt 0.4240 1.0000 0.0000
vt 0.4087 0.0000 0.0000
vt 0.4051 0.1104 0.0000
vt 0.3997 0.2789 0.0000
vt 0.5170 0.3555 0.0000
vt 0.5085 0.0000 0.0000
vt 0.5123 0.1596 0.0000
vt 0.9392 1.0000 0.0000
vt 0.9394 0.0000 0.0000
vt 0.0000 0.0561 0.0000
vt 0.0000 0.0498 0.0000
vt 0.8422 0.0000 0.0000
vt 0.8492 0.0000 0.0000
vt 0.8641 0.0000 0.0000
vt 0.8757 0.0000 0.0000
vt 0.8858 0.0000 0.0000
vt 0.8993 0.0000 0.0000
vt 0.9363 0.0000 0.0000
vt 0.9470 0.0000 0.0000
vt 0.9707 0.0000 0.0000
vt 0.9153 0.0000 0.0000
vt 0.9781 0.0000 0.0000
vt 0.9819 0.0000 0.0000
vt 0.9851 0.0000 0.0000
vt 1.0000 0.0729 0.0000
vt 0.0000 0.0922 0.0000
vt 1.0000 0.3733 0.0000
vt 1.0000 0.3949 0.0000
vt 1.0000 0.5856 0.0000
vt 1.0000 0.6141 0.0000
vt 1.0000 0.9020 0.0000
vt 0.9528 1.0000 0.0000
vt 0.9440 1.0000 0.0000
vt 0.9355 1.0000 0.0000
vt 0.9186 1.0000 0.0000
vt 0.9041 1.0000 0.0000
vt 0.8855 1.0000 0.0000
vt 0.8812 1.0000 0.0000
vt 0.8784 1.0000 0.0000
vt 0.8748 1.0000 0.0000
vt 0.7128 0.8357 0.0000
vt 0.3905 0.4999 0.0000
vt 0.0000 0.0928 0.0000
vt 0.0000 0.4498 0.0000
vt 0.0000 0.4234 0.0000
vt 0.0000 0.1391 0.0000
vt 0.0000 0.5760 0.0000
vt 0.0000 0.6153 0.0000
vt 0.0000 0.1051 0.0000
vt 0.3670 0.5068 0.0000
vt 0.6351 1.0000 0.0000
vt 0.6040 1.0000 0.0000
vt 0.5719 1.0000 0.0000
vt 0.5219 1.0000 0.0000
vt 0.4794 1.0000 0.0000
vt 0.4199 1.0000 0.0000
vt 0.3691 1.0000 0.0000
vt 0.2833 1.0000 0.0000
vt 0.2515 1.0000 0.0000
vt 0.1956 1.0000 0.0000
vt 0.1315 1.0000 0.0000
vt 0.0608 1.0000 0.0000
vt 0.0000 0.6626 0.0000
vt 0.4451 0.5933 0.0000
vt 0.8119 1.0000 0.0000
vt 0.8685 1.0000 0.0000
vt 0.8672 0.0000 0.0000
vt 0.8044 1.0000 0.0000
vt 0.8029 0.0000 0.0000
vt 0.7485 1.0000 0.0000
vt 0.7454 0.0000 0.0000
vt 0.7167 1.0000 0.0000
vt 0.7146 0.0000 0.0000
vt 0.6309 1.0000 0.0000
vt 0.6282 0.0000 0.0000
vt 0.5801 1.0000 0.0000
vt 0.5743 0.0000 0.0000
vt 0.5206 1.0000 0.0000
vt 0.4989 0.0000 0.0000
vt 0.4781 1.0000 0.0000
vt 0.4454 0.0000 0.0000
vt 0.4281 1.0000 0.0000
vt 0.3911 0.0000 0.0000
vt 0.3960 1.0000 0.0000
vt 0.3570 0.0000 0.0000
vt 0.1817 1.0000 0.0000
vt 0.1587 1.0000 0.0000
vt 0.1473 0.0000 0.0000
vt 0.1685 0.0000 0.0000
vt 0.1335 1.0000 0.0000
vt 0.1124 0.0000 0.0000
vt 0.1252 1.0000 0.0000
vt 0.1034 0.0000 0.0000
vt 0.1064 0.0000 0.0000
vt 0.1296 1.0000 0.0000
vt 0.0959 1.0000 0.0000
vt 0.0775 0.0000 0.0000
vt 0.0935 0.0000 0.0000
vt 0.1145 1.0000 0.0000
vt 0.0814 1.0000 0.0000
vt 0.0626 0.0000 0.0000
vt 0.1216 1.0000 0.0000
vt 0.1008 0.0000 0.0000
vt 0.0981 0.0000 0.0000
vt 0.1188 1.0000 0.0000
vt 0.0645 1.0000 0.0000
vt 0.0479 0.0000 0.0000
vt 0.0560 1.0000 0.0000
vt 0.0423 0.0000 0.0000
vt 0.0472 1.0000 0.0000
vt 0.0346 0.0000 0.0000
vt 0.9098 0.0000 0.0000
vt 0.9020 1.0000 0.0000
vt 0.6141 1.0000 0.0000
vt 0.6159 0.0000 0.0000
vt 0.5880 0.0000 0.0000
vt 0.5856 1.0000 0.0000
vt 0.3949 1.0000 0.0000
vt 0.3914 0.0000 0.0000
vt 0.3691 0.0000 0.0000
vt 0.3733 1.0000 0.0000
vt 0.0729 1.0000 0.0000
vt 0.0644 0.0000 0.0000
vt 0.3241 0.0000 0.0000
vt 0.3226 1.0000 0.0000
vt 0.3540 0.0000 0.0000
vt 0.3548 1.0000 0.0000
vt 0.5776 0.0000 0.0000
vt 0.3731 0.0000 0.0000
vt 0.3748 1.0000 0.0000
vt 0.5836 1.0000 0.0000
vt 0.7912 1.0000 0.0000
vt 0.7800 0.0000 0.0000
vt 0.8544 0.0000 0.0000
vt 0.8492 1.0000 0.0000
vt 0.8833 0.0000 0.0000
vt 0.8757 1.0000 0.0000
vt 0.8641 1.0000 0.0000
vt 0.8694 0.0000 0.0000
vt 0.8976 0.0000 0.0000
vt 0.8858 1.0000 0.0000
vt 0.9120 0.0000 0.0000
vt 0.8993 1.0000 0.0000
vt 0.9366 0.0000 0.0000
vt 0.9153 1.0000 0.0000
vt 0.9478 0.0000 0.0000
vt 0.9363 1.0000 0.0000
vt 0.9648 0.0000 0.0000
vt 0.9470 1.0000 0.0000
vt 0.9834 0.0000 0.0000
vt 0.9707 1.0000 0.0000
vt 0.9875 0.0000 0.0000
vt 0.9781 1.0000 0.0000
vt 0.9898 0.0000 0.0000
vt 0.9819 1.0000 0.0000
vt 0.9916 0.0000 0.0000
vt 0.9851 1.0000 0.0000
# 253 texture coords

o Key
g Key
usemtl wire_028149177
s 2
f 1/1/1 2/2/1 3/3/1 
f 3/3/1 4/4/1 5/5/1 
f 1/1/1 3/3/1 5/5/1 
f 6/6/1 7/7/1 8/8/1 
f 8/8/1 9/9/1 10/10/1 
f 6/6/1 8/8/1 10/10/1 
f 6/6/1 10/10/1 11/11/1 
f 11/11/1 12/12/1 13/13/1 
f 11/11/1 13/13/1 14/14/1 
f 11/11/1 14/14/1 15/15/1 
f 6/6/1 11/11/1 15/15/1 
f 15/15/1 16/16/1 17/17/1 
f 15/15/1 17/17/1 18/18/1 
f 15/15/1 18/18/1 19/19/1 
f 6/6/1 15/15/1 19/19/1 
f 19/19/1 20/20/1 21/21/1 
f 19/19/1 21/21/1 22/22/1 
f 6/6/1 19/19/1 22/22/1 
f 22/22/1 23/23/2 23/24/1 
f 22/22/1 23/24/1 24/25/1 
f 6/6/1 22/22/1 24/25/1 
f 6/6/1 24/25/1 25/26/1 
f 6/6/1 25/26/1 26/27/1 
f 27/28/1 28/29/1 29/30/1 
f 30/31/1 27/28/1 29/30/1 
f 29/30/1 31/32/1 32/33/1 
f 32/33/1 33/34/1 34/35/1 
f 29/30/1 32/33/1 34/35/1 
f 30/31/1 29/30/1 34/35/1 
f 35/36/1 30/31/1 34/35/1 
f 26/27/1 35/36/1 34/35/1 
f 6/6/1 26/27/1 34/35/1 
f 5/5/1 6/6/1 34/35/1 
f 34/35/1 36/37/1 37/38/1 
f 37/38/1 38/39/1 39/40/1 
f 37/38/1 39/40/1 40/41/1 
f 34/35/1 37/38/1 40/41/1 
f 41/42/1 42/43/1 43/44/1 
f 40/41/1 41/42/1 43/44/1 
f 43/44/1 44/45/1 45/46/1 
f 45/46/1 46/47/1 47/48/1 
f 43/44/1 45/46/1 47/48/1 
f 40/41/1 43/44/1 47/48/1 
f 34/35/1 40/41/1 47/48/1 
f 34/35/1 47/48/1 48/49/1 
f 34/35/1 48/49/1 49/50/1 
f 5/5/1 34/35/1 49/50/1 
f 5/5/1 49/50/1 50/51/1 
f 51/52/1 52/53/1 53/54/1 
f 54/55/1 51/52/1 53/54/1 
f 55/56/1 54/55/1 53/54/1 
f 50/51/1 55/56/1 53/54/1 
f 5/5/1 50/51/1 53/54/1 
f 1/1/1 5/5/1 53/54/1 
f 56/57/1 1/1/1 53/54/1 
f 57/58/1 56/57/1 53/54/1 
s 4
f 58/59/3 59/60/4 60/61/5 
f 61/62/3 58/59/3 60/61/5 
f 61/62/3 60/61/5 62/63/4 
s 8
f 53/64/6 63/65/6 64/35/7 
f 64/35/7 57/43/7 53/64/6 
s 32
f 21/66/8 65/67/8 66/68/9 
f 66/68/9 22/69/10 21/66/8 
s 64
f 2/70/11 1/71/6 67/72/12 
f 2/70/11 67/72/12 68/73/13 
f 2/70/11 68/73/13 69/74/11 
f 70/75/14 3/76/14 2/70/11 
f 2/70/11 69/74/11 70/75/14 
f 70/75/14 71/77/10 72/78/10 
f 70/75/14 72/78/10 73/79/15 
f 70/75/14 73/79/15 4/80/16 
f 70/75/14 4/80/16 3/76/14 
f 74/81/10 75/35/10 9/43/10 
f 74/81/10 9/43/10 8/82/10 
f 76/83/10 74/81/10 8/82/10 
f 56/84/6 77/85/17 67/72/12 
f 67/72/12 1/71/6 56/84/6 
f 57/58/6 64/9/6 78/86/18 
f 57/58/6 78/86/18 77/85/17 
f 56/84/6 57/58/6 77/85/17 
f 79/87/19 80/88/20 81/89/21 
f 78/86/18 79/87/19 81/89/21 
f 77/85/17 78/86/18 81/89/21 
f 79/87/19 82/90/22 83/91/23 
f 83/91/23 80/88/20 79/87/19 
f 84/92/7 68/73/13 67/72/12 
f 82/90/22 84/92/7 67/72/12 
f 82/90/22 67/72/12 85/93/24 
f 82/90/22 85/93/24 83/91/23 
f 85/93/24 67/72/12 77/85/17 
f 77/85/17 81/89/21 85/93/24 
f 85/93/24 81/89/21 80/88/20 
f 80/88/20 83/91/23 85/93/24 
f 76/83/10 8/82/10 7/94/11 
f 76/83/10 7/94/11 86/95/25 
f 76/83/10 86/95/25 87/96/10 
f 88/97/10 76/83/10 87/96/10 
f 88/97/10 87/96/10 72/78/10 
f 72/78/10 71/77/10 88/97/10 
f 6/98/26 89/99/27 90/100/28 
f 7/94/11 6/98/26 90/100/28 
f 86/95/25 7/94/11 90/100/28 
f 86/95/25 90/100/28 91/101/29 
f 86/95/25 91/101/29 73/79/15 
f 87/96/10 86/95/25 73/79/15 
f 87/96/10 73/79/15 72/78/10 
f 5/102/30 92/103/31 89/99/27 
f 89/99/27 6/98/26 5/102/30 
f 73/79/15 91/101/29 92/103/31 
f 4/80/16 73/79/15 92/103/31 
f 5/102/30 4/80/16 92/103/31 
f 91/101/29 90/100/28 89/99/27 
f 89/99/27 92/103/31 91/101/29 
s 32
f 9/58/32 75/9/32 93/104/33 
f 93/104/33 10/105/33 9/58/32 
s 4
f 79/106/4 78/107/34 64/43/34 
f 79/106/4 64/43/34 63/108/34 
f 63/108/34 94/109/34 95/110/34 
f 63/108/34 95/110/34 96/111/34 
f 79/106/4 63/108/34 96/111/34 
f 79/106/4 96/111/34 97/112/34 
f 79/106/4 97/112/34 98/113/3 
f 99/114/34 100/115/34 101/116/3 
f 102/117/34 99/114/34 101/116/3 
f 101/116/3 103/118/3 104/119/3 
f 104/119/3 105/120/3 106/58/3 
f 101/116/3 104/119/3 106/58/3 
f 102/117/34 101/116/3 106/58/3 
f 98/113/3 102/117/34 106/58/3 
f 98/113/3 106/58/3 107/121/3 
f 79/106/4 98/113/3 107/121/3 
f 82/122/3 79/106/4 107/121/3 
f 108/123/34 109/124/34 110/125/34 
f 108/123/34 110/125/34 111/126/34 
f 111/126/34 112/127/34 113/9/34 
f 113/9/34 114/128/34 115/129/4 
f 111/126/34 113/9/34 115/129/4 
f 108/123/34 111/126/34 115/129/4 
f 107/121/3 108/123/34 115/129/4 
f 115/129/4 116/130/34 117/131/34 
f 117/131/34 118/132/34 119/133/34 
f 115/129/4 117/131/34 119/133/34 
f 115/129/4 119/133/34 120/134/34 
f 115/129/4 120/134/34 121/135/4 
f 107/121/3 115/129/4 121/135/4 
f 107/121/3 121/135/4 122/136/4 
f 107/121/3 122/136/4 61/62/3 
f 107/121/3 61/62/3 62/63/4 
f 62/63/4 62/137/35 123/138/36 
f 107/121/3 62/63/4 123/138/36 
f 82/122/3 107/121/3 123/138/36 
f 84/139/37 82/122/3 123/138/36 
f 71/140/34 70/141/34 69/142/38 
f 88/143/39 71/140/34 69/142/38 
f 76/144/40 88/143/39 69/142/38 
f 69/142/38 68/145/3 84/139/37 
f 76/144/40 69/142/38 84/139/37 
f 76/144/40 84/139/37 123/138/36 
f 76/144/40 123/138/36 124/146/8 
f 65/147/34 125/148/34 126/149/34 
f 127/150/34 128/151/34 129/152/34 
f 127/150/34 129/152/34 130/153/34 
f 126/149/34 127/150/34 130/153/34 
f 131/154/34 132/155/34 133/156/34 
f 131/154/34 133/156/34 134/157/34 
f 130/153/34 131/154/34 134/157/34 
f 126/149/34 130/153/34 134/157/34 
f 93/158/34 75/35/34 74/159/41 
f 134/157/34 93/158/34 74/159/41 
f 126/149/34 134/157/34 74/159/41 
f 126/149/34 74/159/41 135/160/42 
f 65/147/34 126/149/34 135/160/42 
f 66/161/43 65/147/34 135/160/42 
f 76/144/40 124/146/8 135/160/42 
f 135/160/42 74/159/41 76/144/40 
s 32
f 10/105/33 93/104/33 134/162/16 
f 134/162/16 11/163/16 10/105/33 
f 11/163/16 134/162/16 133/164/16 
f 133/164/16 12/165/16 11/163/16 
f 12/165/16 133/164/16 132/166/44 
f 132/166/44 13/167/44 12/165/16 
f 13/167/44 132/166/44 131/168/44 
f 131/168/44 14/169/44 13/167/44 
f 14/169/44 131/168/44 130/170/45 
f 130/170/45 15/171/45 14/169/44 
f 15/171/45 130/170/45 129/172/45 
f 129/172/45 16/173/45 15/171/45 
f 16/173/45 129/172/45 128/174/46 
f 128/174/46 17/175/46 16/173/45 
f 17/175/46 128/174/46 127/176/46 
f 127/176/46 18/177/46 17/175/46 
f 18/177/46 127/176/46 126/178/16 
f 126/178/16 19/179/16 18/177/46 
f 19/179/16 126/178/16 125/180/16 
f 125/180/16 20/181/16 19/179/16 
f 20/181/16 125/180/16 65/67/8 
f 65/67/8 21/66/8 20/181/16 
f 66/68/9 60/182/47 59/183/10 
f 59/183/10 23/184/8 23/185/47 
f 59/183/10 23/185/47 22/69/10 
f 66/68/9 59/183/10 22/69/10 
s 4
f 135/160/42 124/146/8 123/138/36 
f 135/160/42 123/138/36 62/137/35 
f 66/161/43 135/160/42 62/137/35 
s 32
f 58/186/48 24/187/48 23/184/8 
f 23/184/8 59/183/10 58/186/48 
s 4
f 62/137/35 62/63/4 60/61/5 
f 60/61/5 66/161/43 62/137/35 
s 32
f 122/188/49 26/189/49 25/190/50 
f 25/190/50 61/191/50 122/188/49 
f 61/191/50 25/190/50 24/187/48 
f 24/187/48 58/186/48 61/191/50 
f 118/192/51 28/193/51 27/194/52 
f 27/194/52 119/195/52 118/192/51 
f 117/196/53 29/197/53 28/193/51 
f 28/193/51 118/192/51 117/196/53 
f 121/198/53 35/199/53 26/189/49 
f 26/189/49 122/188/49 121/198/53 
f 119/195/52 27/194/52 30/200/51 
f 30/200/51 120/201/51 119/195/52 
f 120/201/51 30/200/51 35/199/53 
f 35/199/53 121/198/53 120/201/51 
f 116/202/49 31/203/49 29/197/53 
f 29/197/53 117/196/53 116/202/49 
f 115/204/50 32/205/50 31/203/49 
f 31/203/49 116/202/49 115/204/50 
f 114/206/54 33/207/54 32/205/50 
f 32/205/50 115/204/50 114/206/54 
f 113/35/55 34/43/55 33/207/54 
f 33/207/54 114/206/54 113/35/55 
s 16
f 36/208/2 112/209/2 111/210/2 
f 111/210/2 37/211/2 36/208/2 
f 38/212/56 110/213/57 109/214/58 
f 109/214/58 39/215/59 38/212/56 
f 40/216/2 108/217/2 107/218/2 
f 107/218/2 41/219/2 40/216/2 
s off
f 106/35/34 136/35/34 137/35/34 
f 106/35/4 137/35/4 138/218/4 
f 107/218/34 106/35/34 138/218/34 
f 42/43/60 139/43/60 136/35/60 
f 136/35/60 106/35/60 42/43/60 
f 42/43/61 41/219/61 140/219/61 
f 42/43/62 140/219/62 141/43/62 
f 42/43/61 141/43/61 139/43/61 
f 107/218/8 138/218/8 140/219/8 
f 140/219/8 41/219/8 107/218/8 
f 36/208/1 34/58/1 142/58/1 
f 142/58/1 143/208/1 36/208/1 
f 113/9/63 144/9/63 142/58/63 
f 142/58/8 34/58/8 113/9/8 
f 112/209/34 145/209/34 144/9/34 
f 144/9/34 113/9/34 112/209/34 
f 36/208/64 143/208/64 145/209/64 
f 145/209/65 112/209/65 36/208/65 
f 38/212/66 37/211/66 146/211/66 
f 146/211/67 147/212/67 38/212/67 
f 111/210/68 148/210/68 146/211/68 
f 146/211/68 37/211/68 111/210/68 
f 111/210/69 110/213/69 148/210/69 
f 38/212/70 147/212/70 149/213/70 
f 149/213/71 110/213/71 38/212/71 
f 40/216/62 39/215/62 150/215/62 
f 150/215/62 151/216/62 40/216/62 
f 109/214/72 152/214/72 150/215/72 
f 150/215/73 39/215/73 109/214/73 
f 108/217/4 153/217/4 152/214/4 
f 152/214/4 109/214/4 108/217/4 
f 108/217/74 40/216/74 151/216/74 
f 151/216/75 153/217/75 108/217/75 
s 1
f 141/43/76 154/220/77 155/221/77 
f 155/221/77 137/35/76 141/43/76 
s 2
f 141/43/66 140/219/66 151/216/66 
f 141/43/66 151/216/66 150/215/66 
f 141/43/66 150/215/66 156/222/66 
f 141/43/66 156/222/66 154/220/1 
s 1
f 140/219/78 138/218/79 153/217/80 
f 153/217/80 151/216/81 140/219/78 
s 2
f 137/35/69 155/221/3 157/223/69 
f 157/223/69 152/214/69 153/217/69 
f 137/35/69 157/223/69 153/217/69 
f 138/218/69 137/35/69 153/217/69 
s 4
f 147/212/62 146/211/1 158/224/1 
f 158/224/1 159/225/62 156/222/62 
f 147/212/62 158/224/1 156/222/62 
f 147/212/62 156/222/62 150/215/62 
f 149/213/4 152/214/4 157/223/4 
f 148/210/4 149/213/4 157/223/4 
f 148/210/4 157/223/4 160/226/4 
f 148/210/4 160/226/4 161/227/4 
s 8
f 147/212/82 150/215/83 152/214/84 
f 152/214/84 149/213/85 147/212/82 
f 160/226/86 159/225/87 158/224/88 
f 158/224/88 161/227/89 160/226/86 
s 1
f 144/9/90 162/228/91 163/229/92 
f 163/229/92 142/58/90 144/9/90 
s 2
f 148/210/4 161/227/4 162/228/4 
f 145/209/4 148/210/4 162/228/4 
f 144/9/4 145/209/4 162/228/4 
s 1
f 143/208/93 146/211/93 148/210/93 
f 148/210/93 145/209/93 143/208/93 
s 2
f 163/229/62 158/224/62 146/211/62 
f 142/58/62 163/229/62 146/211/62 
f 143/208/62 142/58/62 146/211/62 
s 8
f 52/230/6 94/231/6 63/65/6 
f 63/65/6 53/64/6 52/230/6 
f 54/232/94 96/233/94 95/234/95 
f 95/234/95 51/235/95 54/232/94 
f 51/235/95 95/234/95 94/231/6 
f 94/231/6 52/230/6 51/235/95 
f 55/236/96 97/237/96 96/233/94 
f 96/233/94 54/232/94 55/236/96 
f 50/238/97 98/239/97 97/237/96 
f 97/237/96 55/236/96 50/238/97 
f 49/240/98 102/241/98 98/239/97 
f 98/239/97 50/238/97 49/240/98 
f 48/242/99 99/243/99 102/241/98 
f 102/241/98 49/240/98 48/242/99 
f 47/244/98 100/245/98 99/243/99 
f 99/243/99 48/242/99 47/244/98 
f 46/246/97 101/247/97 100/245/98 
f 100/245/98 47/244/98 46/246/97 
f 45/248/96 103/249/96 101/247/97 
f 101/247/97 46/246/97 45/248/96 
f 44/250/94 104/251/94 103/249/96 
f 103/249/96 45/248/96 44/250/94 
f 43/252/95 105/253/95 104/251/94 
f 104/251/94 44/250/94 43/252/95 
f 42/58/7 106/9/7 105/253/95 
f 105/253/95 43/252/95 42/58/7 
s off
f 141/43/100 137/35/100 136/35/100 
f 136/35/100 139/43/100 141/43/100 
s 1
f 161/227/101 158/224/102 163/229/92 
f 163/229/92 162/228/91 161/227/101 
f 156/222/103 157/223/103 155/221/77 
f 155/221/77 154/220/77 156/222/103 
s 8
f 157/223/104 156/222/104 159/225/87 
f 159/225/87 160/226/86 157/223/104 
s off
f 110/213/105 149/213/105 148/210/105 
# 338 faces

